<svg width="512" height="512" viewBox="0 0 512 512" fill="none" xmlns="http://www.w3.org/2000/svg">
<path d="M473.183 123.761L395.822 78.8894L425.703 40.1236C428.873 35.1874 430.081 29.2394 429.088 23.4543C428.148 17.4643 424.967 12.058 420.191 8.33564C415.579 4.73358 409.767 3.03472 403.945 3.58684C398.102 4.07657 392.652 6.73831 388.667 11.0493L354.918 54.9515L262.956 1.55163C261.095 0.509656 258.994 -0.0250104 256.863 0.000995996C254.763 -0.0263277 252.693 0.508986 250.868 1.55163L158.422 55.533L124.287 11.0493C120.377 6.45364 114.855 3.53902 108.862 2.90774C102.869 2.27645 96.8626 3.97675 92.0849 7.65725C87.309 11.3796 84.1279 16.7859 83.1886 22.7759C82.3031 28.8179 83.7939 34.9684 87.3467 39.9298L117.517 79.1801L41.1237 123.858C39.2799 124.931 37.7469 126.468 36.6755 128.316C35.6145 130.176 35.0483 132.279 35.0315 134.421V377.967C35.0335 380.109 35.5974 382.212 36.6667 384.066C37.736 385.921 39.2731 387.46 41.1237 388.531L251.255 510.352C253.072 511.425 255.141 511.993 257.25 512C259.389 511.992 261.49 511.424 263.342 510.352L473.57 388.531C475.441 387.46 477.006 385.925 478.115 384.073C479.155 382.208 479.688 380.103 479.662 377.967V134.324C479.637 132.139 479.037 130 477.922 128.122C476.764 126.266 475.127 124.759 473.183 123.761V123.761ZM457.904 336.003L257.443 432.918L57.0793 336.003V302.083L257.443 402.971L457.711 302.083L457.904 336.003ZM457.904 244.904L257.443 342.4L57.1761 244.904V210.984L257.443 311.872L457.711 210.984L457.904 244.904Z" fill="#FFAE00"/>
</svg>
